<mxfile host="app.diagrams.net" modified="2023-05-15T15:45:39.645Z" agent="Mozilla/5.0 (Windows NT 10.0; Win64; x64) AppleWebKit/537.36 (KHTML, like Gecko) Chrome/113.0.0.0 Safari/537.36" etag="9vF07bm7tyJXnEhSGUu_" version="21.3.2" type="device">
  <diagram name="Page-1" id="KKDiJUULvBYb42bfsppv">
    <mxGraphModel dx="1259" dy="1727" grid="1" gridSize="10" guides="1" tooltips="1" connect="1" arrows="1" fold="1" page="1" pageScale="1" pageWidth="850" pageHeight="1100" math="0" shadow="0">
      <root>
        <mxCell id="0" />
        <mxCell id="1" parent="0" />
        <mxCell id="onUoi8UkNJH3Dttnj52P-15" style="edgeStyle=orthogonalEdgeStyle;rounded=0;orthogonalLoop=1;jettySize=auto;html=1;exitX=0.5;exitY=1;exitDx=0;exitDy=0;" edge="1" parent="1" source="onUoi8UkNJH3Dttnj52P-14" target="onUoi8UkNJH3Dttnj52P-16">
          <mxGeometry relative="1" as="geometry">
            <mxPoint x="110" y="160" as="targetPoint" />
            <Array as="points">
              <mxPoint x="60" y="140" />
            </Array>
          </mxGeometry>
        </mxCell>
        <mxCell id="onUoi8UkNJH3Dttnj52P-14" value="" style="ellipse;whiteSpace=wrap;html=1;aspect=fixed;fillColor=#008a00;fontColor=#ffffff;strokeColor=#005700;" vertex="1" parent="1">
          <mxGeometry x="40" y="40" width="40" height="40" as="geometry" />
        </mxCell>
        <mxCell id="onUoi8UkNJH3Dttnj52P-20" style="edgeStyle=orthogonalEdgeStyle;rounded=0;orthogonalLoop=1;jettySize=auto;html=1;entryX=0.495;entryY=1.013;entryDx=0;entryDy=0;entryPerimeter=0;" edge="1" parent="1" source="onUoi8UkNJH3Dttnj52P-16" target="onUoi8UkNJH3Dttnj52P-19">
          <mxGeometry relative="1" as="geometry" />
        </mxCell>
        <mxCell id="onUoi8UkNJH3Dttnj52P-24" style="edgeStyle=orthogonalEdgeStyle;rounded=0;orthogonalLoop=1;jettySize=auto;html=1;entryX=0.11;entryY=0.498;entryDx=0;entryDy=0;entryPerimeter=0;" edge="1" parent="1" source="onUoi8UkNJH3Dttnj52P-16" target="onUoi8UkNJH3Dttnj52P-23">
          <mxGeometry relative="1" as="geometry" />
        </mxCell>
        <mxCell id="onUoi8UkNJH3Dttnj52P-16" value="" style="rhombus;whiteSpace=wrap;html=1;fillColor=#a20025;fontColor=#ffffff;strokeColor=#6F0000;" vertex="1" parent="1">
          <mxGeometry x="160" y="120" width="40" height="40" as="geometry" />
        </mxCell>
        <mxCell id="onUoi8UkNJH3Dttnj52P-22" style="edgeStyle=orthogonalEdgeStyle;rounded=0;orthogonalLoop=1;jettySize=auto;html=1;entryX=0.5;entryY=1;entryDx=0;entryDy=0;exitX=0.52;exitY=0.092;exitDx=0;exitDy=0;exitPerimeter=0;" edge="1" parent="1" source="onUoi8UkNJH3Dttnj52P-19" target="onUoi8UkNJH3Dttnj52P-21">
          <mxGeometry relative="1" as="geometry" />
        </mxCell>
        <mxCell id="onUoi8UkNJH3Dttnj52P-19" value="First Time" style="ellipse;shape=cloud;whiteSpace=wrap;html=1;" vertex="1" parent="1">
          <mxGeometry x="130" y="30" width="100" height="50" as="geometry" />
        </mxCell>
        <mxCell id="onUoi8UkNJH3Dttnj52P-27" style="edgeStyle=orthogonalEdgeStyle;rounded=0;orthogonalLoop=1;jettySize=auto;html=1;entryX=0.5;entryY=0;entryDx=0;entryDy=0;" edge="1" parent="1" source="onUoi8UkNJH3Dttnj52P-21" target="onUoi8UkNJH3Dttnj52P-25">
          <mxGeometry relative="1" as="geometry" />
        </mxCell>
        <mxCell id="onUoi8UkNJH3Dttnj52P-21" value="Register" style="rounded=0;whiteSpace=wrap;html=1;fillColor=#0050ef;fontColor=#ffffff;strokeColor=#001DBC;" vertex="1" parent="1">
          <mxGeometry x="140" y="-40" width="80" height="40" as="geometry" />
        </mxCell>
        <mxCell id="onUoi8UkNJH3Dttnj52P-26" style="edgeStyle=orthogonalEdgeStyle;rounded=0;orthogonalLoop=1;jettySize=auto;html=1;entryX=0;entryY=0.5;entryDx=0;entryDy=0;exitX=0.937;exitY=0.511;exitDx=0;exitDy=0;exitPerimeter=0;" edge="1" parent="1" source="onUoi8UkNJH3Dttnj52P-23" target="onUoi8UkNJH3Dttnj52P-25">
          <mxGeometry relative="1" as="geometry" />
        </mxCell>
        <mxCell id="onUoi8UkNJH3Dttnj52P-23" value="Existing User/Admin" style="ellipse;shape=cloud;whiteSpace=wrap;html=1;" vertex="1" parent="1">
          <mxGeometry x="230" y="115" width="100" height="50" as="geometry" />
        </mxCell>
        <mxCell id="onUoi8UkNJH3Dttnj52P-29" style="edgeStyle=orthogonalEdgeStyle;rounded=0;orthogonalLoop=1;jettySize=auto;html=1;entryX=0.5;entryY=0;entryDx=0;entryDy=0;" edge="1" parent="1" source="onUoi8UkNJH3Dttnj52P-25" target="onUoi8UkNJH3Dttnj52P-28">
          <mxGeometry relative="1" as="geometry" />
        </mxCell>
        <mxCell id="onUoi8UkNJH3Dttnj52P-25" value="Login" style="rounded=0;whiteSpace=wrap;html=1;fillColor=#0050ef;fontColor=#ffffff;strokeColor=#001DBC;" vertex="1" parent="1">
          <mxGeometry x="360" y="120" width="80" height="40" as="geometry" />
        </mxCell>
        <mxCell id="onUoi8UkNJH3Dttnj52P-31" style="edgeStyle=orthogonalEdgeStyle;rounded=0;orthogonalLoop=1;jettySize=auto;html=1;entryX=0.875;entryY=0.5;entryDx=0;entryDy=0;entryPerimeter=0;" edge="1" parent="1" source="onUoi8UkNJH3Dttnj52P-28" target="onUoi8UkNJH3Dttnj52P-30">
          <mxGeometry relative="1" as="geometry">
            <Array as="points">
              <mxPoint x="400" y="280" />
              <mxPoint x="348" y="280" />
            </Array>
          </mxGeometry>
        </mxCell>
        <mxCell id="onUoi8UkNJH3Dttnj52P-41" style="edgeStyle=orthogonalEdgeStyle;rounded=0;orthogonalLoop=1;jettySize=auto;html=1;entryX=0.504;entryY=0.156;entryDx=0;entryDy=0;entryPerimeter=0;" edge="1" parent="1" source="onUoi8UkNJH3Dttnj52P-28" target="onUoi8UkNJH3Dttnj52P-40">
          <mxGeometry relative="1" as="geometry" />
        </mxCell>
        <mxCell id="onUoi8UkNJH3Dttnj52P-28" value="" style="rhombus;whiteSpace=wrap;html=1;fillColor=#a20025;strokeColor=#6F0000;fontColor=#ffffff;" vertex="1" parent="1">
          <mxGeometry x="380" y="200" width="40" height="40" as="geometry" />
        </mxCell>
        <mxCell id="onUoi8UkNJH3Dttnj52P-38" style="edgeStyle=orthogonalEdgeStyle;rounded=0;orthogonalLoop=1;jettySize=auto;html=1;entryX=1;entryY=0.5;entryDx=0;entryDy=0;exitX=0.086;exitY=0.49;exitDx=0;exitDy=0;exitPerimeter=0;" edge="1" parent="1" source="onUoi8UkNJH3Dttnj52P-30" target="onUoi8UkNJH3Dttnj52P-32">
          <mxGeometry relative="1" as="geometry" />
        </mxCell>
        <mxCell id="onUoi8UkNJH3Dttnj52P-30" value="View Profile" style="ellipse;shape=cloud;whiteSpace=wrap;html=1;" vertex="1" parent="1">
          <mxGeometry x="250" y="255" width="100" height="50" as="geometry" />
        </mxCell>
        <mxCell id="onUoi8UkNJH3Dttnj52P-39" style="edgeStyle=orthogonalEdgeStyle;rounded=0;orthogonalLoop=1;jettySize=auto;html=1;entryX=0;entryY=0.5;entryDx=0;entryDy=0;" edge="1" parent="1" source="onUoi8UkNJH3Dttnj52P-32" target="onUoi8UkNJH3Dttnj52P-28">
          <mxGeometry relative="1" as="geometry">
            <Array as="points">
              <mxPoint x="160" y="220" />
            </Array>
          </mxGeometry>
        </mxCell>
        <mxCell id="onUoi8UkNJH3Dttnj52P-32" value="Profile Settings" style="rounded=0;whiteSpace=wrap;html=1;fillColor=#0050ef;fontColor=#ffffff;strokeColor=#001DBC;" vertex="1" parent="1">
          <mxGeometry x="120" y="260" width="80" height="40" as="geometry" />
        </mxCell>
        <mxCell id="onUoi8UkNJH3Dttnj52P-43" style="edgeStyle=orthogonalEdgeStyle;rounded=0;orthogonalLoop=1;jettySize=auto;html=1;entryX=0.5;entryY=0;entryDx=0;entryDy=0;exitX=0.5;exitY=0.957;exitDx=0;exitDy=0;exitPerimeter=0;" edge="1" parent="1" source="onUoi8UkNJH3Dttnj52P-40" target="onUoi8UkNJH3Dttnj52P-42">
          <mxGeometry relative="1" as="geometry" />
        </mxCell>
        <mxCell id="onUoi8UkNJH3Dttnj52P-40" value="View &lt;br&gt;Database of Hardware/Software" style="ellipse;shape=cloud;whiteSpace=wrap;html=1;" vertex="1" parent="1">
          <mxGeometry x="330" y="320" width="140" height="80" as="geometry" />
        </mxCell>
        <mxCell id="onUoi8UkNJH3Dttnj52P-48" style="edgeStyle=orthogonalEdgeStyle;rounded=0;orthogonalLoop=1;jettySize=auto;html=1;entryX=0.5;entryY=0;entryDx=0;entryDy=0;" edge="1" parent="1" source="onUoi8UkNJH3Dttnj52P-42" target="onUoi8UkNJH3Dttnj52P-47">
          <mxGeometry relative="1" as="geometry" />
        </mxCell>
        <mxCell id="onUoi8UkNJH3Dttnj52P-42" value="Database" style="rounded=0;whiteSpace=wrap;html=1;fillColor=#0050ef;fontColor=#ffffff;strokeColor=#001DBC;" vertex="1" parent="1">
          <mxGeometry x="360" y="430" width="80" height="40" as="geometry" />
        </mxCell>
        <mxCell id="onUoi8UkNJH3Dttnj52P-56" style="edgeStyle=orthogonalEdgeStyle;rounded=0;orthogonalLoop=1;jettySize=auto;html=1;entryX=0;entryY=0.5;entryDx=0;entryDy=0;exitX=0.55;exitY=0.95;exitDx=0;exitDy=0;exitPerimeter=0;" edge="1" parent="1" source="onUoi8UkNJH3Dttnj52P-44" target="onUoi8UkNJH3Dttnj52P-54">
          <mxGeometry relative="1" as="geometry">
            <Array as="points">
              <mxPoint x="295" y="690" />
            </Array>
          </mxGeometry>
        </mxCell>
        <mxCell id="onUoi8UkNJH3Dttnj52P-44" value="Add Item" style="ellipse;shape=cloud;whiteSpace=wrap;html=1;" vertex="1" parent="1">
          <mxGeometry x="240" y="590" width="100" height="50" as="geometry" />
        </mxCell>
        <mxCell id="onUoi8UkNJH3Dttnj52P-49" style="edgeStyle=orthogonalEdgeStyle;rounded=0;orthogonalLoop=1;jettySize=auto;html=1;exitX=0.5;exitY=1;exitDx=0;exitDy=0;entryX=0.512;entryY=0.128;entryDx=0;entryDy=0;entryPerimeter=0;" edge="1" parent="1" source="onUoi8UkNJH3Dttnj52P-47" target="onUoi8UkNJH3Dttnj52P-44">
          <mxGeometry relative="1" as="geometry">
            <mxPoint x="320" y="590" as="targetPoint" />
            <Array as="points">
              <mxPoint x="400" y="570" />
              <mxPoint x="291" y="570" />
            </Array>
          </mxGeometry>
        </mxCell>
        <mxCell id="onUoi8UkNJH3Dttnj52P-51" style="edgeStyle=orthogonalEdgeStyle;rounded=0;orthogonalLoop=1;jettySize=auto;html=1;entryX=0.505;entryY=0.138;entryDx=0;entryDy=0;entryPerimeter=0;" edge="1" parent="1" source="onUoi8UkNJH3Dttnj52P-47" target="onUoi8UkNJH3Dttnj52P-50">
          <mxGeometry relative="1" as="geometry" />
        </mxCell>
        <mxCell id="onUoi8UkNJH3Dttnj52P-53" style="edgeStyle=orthogonalEdgeStyle;rounded=0;orthogonalLoop=1;jettySize=auto;html=1;entryX=0.494;entryY=0.117;entryDx=0;entryDy=0;entryPerimeter=0;exitX=0.5;exitY=1;exitDx=0;exitDy=0;" edge="1" parent="1" source="onUoi8UkNJH3Dttnj52P-47" target="onUoi8UkNJH3Dttnj52P-52">
          <mxGeometry relative="1" as="geometry" />
        </mxCell>
        <mxCell id="onUoi8UkNJH3Dttnj52P-47" value="" style="rhombus;whiteSpace=wrap;html=1;fillColor=#a20025;strokeColor=#6F0000;fontColor=#ffffff;" vertex="1" parent="1">
          <mxGeometry x="380" y="510" width="40" height="40" as="geometry" />
        </mxCell>
        <mxCell id="onUoi8UkNJH3Dttnj52P-55" style="edgeStyle=orthogonalEdgeStyle;rounded=0;orthogonalLoop=1;jettySize=auto;html=1;entryX=0.5;entryY=0;entryDx=0;entryDy=0;" edge="1" parent="1" source="onUoi8UkNJH3Dttnj52P-50" target="onUoi8UkNJH3Dttnj52P-54">
          <mxGeometry relative="1" as="geometry" />
        </mxCell>
        <mxCell id="onUoi8UkNJH3Dttnj52P-50" value="&amp;nbsp;Remove Item" style="ellipse;shape=cloud;whiteSpace=wrap;html=1;" vertex="1" parent="1">
          <mxGeometry x="345" y="590" width="110" height="50" as="geometry" />
        </mxCell>
        <mxCell id="onUoi8UkNJH3Dttnj52P-58" style="edgeStyle=orthogonalEdgeStyle;rounded=0;orthogonalLoop=1;jettySize=auto;html=1;entryX=1;entryY=0.5;entryDx=0;entryDy=0;exitX=0.497;exitY=0.967;exitDx=0;exitDy=0;exitPerimeter=0;" edge="1" parent="1" source="onUoi8UkNJH3Dttnj52P-52" target="onUoi8UkNJH3Dttnj52P-54">
          <mxGeometry relative="1" as="geometry">
            <Array as="points">
              <mxPoint x="510" y="690" />
            </Array>
          </mxGeometry>
        </mxCell>
        <mxCell id="onUoi8UkNJH3Dttnj52P-52" value="Edit Item" style="ellipse;shape=cloud;whiteSpace=wrap;html=1;" vertex="1" parent="1">
          <mxGeometry x="460" y="590" width="100" height="50" as="geometry" />
        </mxCell>
        <mxCell id="onUoi8UkNJH3Dttnj52P-54" value="" style="rhombus;whiteSpace=wrap;html=1;fillColor=#a20025;strokeColor=#6F0000;fontColor=#ffffff;" vertex="1" parent="1">
          <mxGeometry x="380" y="670" width="40" height="40" as="geometry" />
        </mxCell>
      </root>
    </mxGraphModel>
  </diagram>
</mxfile>
